<svg viewBox="0 0 16 16" fill="none" xmlns="http://www.w3.org/2000/svg" id="Facebook--Streamline-Unicons" height="16" width="16">
  <desc>
    Facebook Streamline Icon: https://streamlinehq.com
  </desc>
  <path d="M14.977599999999999 0.15999999999999998H1.0224C0.7936666666666665 0.15999999999999998 0.5743333333333334 0.2508666666666667 0.41259999999999997 0.41259999999999997 0.2508666666666667 0.5743333333333334 0.15999999999999998 0.7936666666666665 0.15999999999999998 1.0224v13.9552c0 0.11326666666666665 0.022333333333333334 0.2254 0.06566666666666666 0.3300666666666666 0.043333333333333335 0.1046 0.10686666666666667 0.19966666666666666 0.1869333333333333 0.2797333333333333 0.08006666666666666 0.08013333333333333 0.1751333333333333 0.1436 0.2798 0.187 0.1046 0.04326666666666666 0.21673333333333333 0.06559999999999999 0.32999999999999996 0.06559999999999999h7.510733333333333v-6.0760000000000005H6.4947333333333335v-2.352h2.0383999999999998V5.648c-0.04226666666666666 -0.4141333333333333 0.006666666666666666 -0.8325333333333332 0.14326666666666665 -1.2257333333333333s0.3575333333333333 -0.7518666666666666 0.6474 -1.0506666666666666c0.28986666666666666 -0.29879999999999995 0.6415333333333333 -0.5306 1.0304 -0.6790666666666666 0.38893333333333335 -0.14853333333333332 0.8056666666666665 -0.2101333333333333 1.2208666666666665 -0.18053333333333332 0.6102 -0.0037333333333333333 1.2201333333333333 0.027666666666666666 1.8267333333333333 0.09406666666666666v2.1167999999999996h-1.2466c-0.9878666666666667 0 -1.176 0.4704 -1.176 1.1524666666666665v1.5131333333333332h2.352l-0.3057333333333333 2.352h-2.0462666666666665V15.84h3.9984c0.11326666666666665 0 0.2254 -0.022333333333333334 0.3300666666666666 -0.06559999999999999 0.1046 -0.0434 0.19966666666666666 -0.10686666666666667 0.2797333333333333 -0.187 0.08013333333333333 -0.08006666666666666 0.1436 -0.1751333333333333 0.187 -0.2797333333333333 0.04326666666666666 -0.10466666666666666 0.06559999999999999 -0.2168 0.06559999999999999 -0.3300666666666666V1.0224c0 -0.11326666666666665 -0.022333333333333334 -0.2254 -0.06559999999999999 -0.32999999999999996 -0.043333333333333335 -0.10466666666666666 -0.10686666666666667 -0.19973333333333332 -0.187 -0.2798 -0.08006666666666666 -0.08006666666666666 -0.1751333333333333 -0.1436 -0.2797333333333333 -0.1869333333333333 -0.10466666666666666 -0.043333333333333335 -0.2168 -0.06566666666666666 -0.3300666666666666 -0.06566666666666666Z" fill="#000000" stroke-width="0.6667"></path>
</svg>